# xmcd
#
# Track frame offsets:
#	150
#	15540
#	28992
#	43020
#	58902
#	76250
#	90295
#	104617
#	117220
#	128975
#	143885
#	159767
#	173770
#	187450
#	202047
#	225405
#
# Disc length: 3017 seconds
#
# Revision: 1
# Processed by: cddbd v1.5.2PL0 Copyright (c) Steve Scherf et al.
# Submitted via: audiograbber 1.83.01
#
DISCID=d70bc710
DTITLE=Sound Choice - SC8792
DYEAR=1900
DGENRE=
TTITLE0=Craddock, Billy Crash - I Love The Blues And The Boogie Woogie
TTITLE1=Bandy, Moe - Two Lonely People
TTITLE2=Desert Rose Band - Love Reunited
TTITLE3=Robbins, Marty - Padre
TTITLE4=Conlee, John - In My Eyes
TTITLE5=Sweethearts Of The Rodeo - Since I Found You
TTITLE6=Exile - I Could Get Used To You
TTITLE7=Conley, Earl Thomas - I Have Loved You Girl (But Not Like This)
TTITLE8=Owens, Buck - Rollin' In My Sweet Baby's Arms
TTITLE9=Parton, Dolly - I Really Got The Feeling
TTITLE10=Fargo, Donna - That Was Yesterday
TTITLE11=Gosdin, Vern - Till The End
TTITLE12=Pride, Charley - I'd Rather Love You
TTITLE13=Overstreet, Tommy - I'll Never Break These Chains
TTITLE14=Hart, Freddie - Got The All Overs For You
TTITLE15=x - Data Track
EXTD=
EXTT0=
EXTT1=
EXTT2=
EXTT3=
EXTT4=
EXTT5=
EXTT6=
EXTT7=
EXTT8=
EXTT9=
EXTT10=
EXTT11=
EXTT12=
EXTT13=
EXTT14=
EXTT15=
PLAYORDER=
